<svg width="640" height="640" viewBox="0 0 640 640" fill="none" xmlns="http://www.w3.org/2000/svg">
<path d="M354.732 17C355.318 17.1881 355.659 17.2543 356.176 17.5722C357.835 18.5878 358.347 21.1189 358.741 22.9123C360.441 30.6527 360.455 39.3469 360.476 47.2345C360.264 89.6245 351.12 131.494 333.641 170.113C330.613 176.675 327.544 183.532 323.606 189.603C345.488 174.128 353.286 161.137 361.134 135.864C375.339 143.779 388.249 154.765 400.861 164.939C411.406 173.446 422.577 181.711 431.365 192.135C437.92 199.91 443.174 213.602 451.131 219.159C460.344 225.594 478.107 230.875 489.042 235.232C518.265 246.879 547.775 257.73 576 271.695C569.173 279.874 563.512 288.043 555.509 295.317C536.287 312.789 508.547 327.085 481.876 325.156C464.765 323.92 447.824 319.268 430.752 317.21C418.432 315.774 406.048 314.944 393.646 314.724C387.219 314.601 380.79 314.997 374.368 314.683C373.855 339.673 385.561 367.046 402.605 385.171C388.069 381.864 377.916 376.848 365.988 367.991C370.789 396.049 395.307 425.244 406.81 451.224C396.382 444.713 386.218 437.252 376.832 429.322C371.271 424.623 366.078 419.514 360.412 414.935C363.103 423.925 366.755 432.611 369.53 441.577C378.104 469.286 381.793 497.773 379.696 526.72C375.976 519.261 373.145 511.383 369.276 503.963C357.002 480.421 338.368 459.38 317.03 443.663C319.755 447.362 321.948 451.701 324.141 455.741C351.176 505.553 363.771 567.719 347.391 623.043C343.821 616.819 341.323 609.871 338.072 603.457C332.074 591.624 324.887 580.847 316.935 570.257C294.626 541.778 269.168 520.006 238.576 500.855C251.309 519.72 263.291 539.733 279.034 556.322C270.37 551.915 261.532 546.23 253.535 540.693C206.256 507.958 179.593 457.005 169.47 401.267C169.125 406.501 169.456 411.845 169.605 417.087C170.578 451.486 179.663 478.487 197.168 507.907C191.955 503.016 186.112 498.655 180.676 493.996C173.141 487.469 165.853 480.663 158.827 473.591C123.207 438.012 96.4939 391.023 86.8007 341.501C90.4989 336.407 95.7483 331.9 100.243 327.469L128.195 300.153C105.849 306.34 87.0419 307.711 64 304.609C79.8519 299.545 94.9078 291.173 109.496 283.246C126.863 273.808 143.973 264.027 161.148 254.249C142.005 249.231 123.095 243.613 107.719 230.529C112.496 231.051 117.47 230.715 122.272 230.62C143.702 230.197 181.161 227.138 200.286 219.15C177.355 214.094 160.948 202.421 146.889 184.027C171.84 192.478 198.302 190.196 224.005 187.737C223.246 181.301 222.982 159.267 224.848 153.364C226.962 146.681 240.225 132.546 245.271 126.531C266.535 101.188 288.166 76.6459 311.561 53.2304C324.647 40.1325 338.283 25.7804 354.732 17ZM251.151 316.273C259.285 311.939 270.203 303.891 276.067 296.742C268.942 319.931 268.475 347.016 279.959 368.9C281.621 372.067 283.503 375.229 285.766 378.008C287.416 365.297 290.144 353.422 294.302 341.281C303.343 363.172 319.055 383.579 339.774 395.4C343.908 397.774 348.089 399.763 352.609 401.292C331.073 375.501 322.418 341.732 325.317 308.6C325.603 305.462 325.938 302.33 326.319 299.202C317.094 312.847 314.366 332.744 314.927 348.927C306.565 336.656 303.848 321.55 299.893 307.532C294.224 314.45 289.415 322.069 284.356 329.437C284.081 310.949 287.794 291.095 295.393 274.192C298.353 267.514 301.938 261.129 306.1 255.125C307.226 253.468 311.544 248.191 311.365 246.773L311.254 246.673C285.426 258.842 264.158 279.775 254.219 306.917C253.121 310.011 252.097 313.131 251.151 316.273ZM380.907 209.752L372.67 210.032C383.855 218.99 394.835 227.163 408.419 232.162L416.326 229.558C419.888 228.504 423.218 228.22 426.904 227.927C421.975 221.8 417.124 215.586 411.97 209.647C401.63 209.622 391.24 209.385 380.907 209.752Z" fill="url(#paint0_linear_310_7)"/>
<path d="M434.783 26.668C436.407 26.6732 437.015 26.6819 438.187 27.782C439.231 31.4897 437.251 37.7739 436.389 41.6132C431.855 61.8148 424.936 80.8694 417.475 100.125C411.316 116.5 404.578 132.65 397.273 148.547C392.028 144.2 387.128 139.279 382.011 134.757C376.467 130.003 370.697 125.514 364.981 120.97C365.824 112.822 367.994 104.724 369.157 96.5941C370.542 86.9105 370.884 76.9134 372.84 67.3465C376.585 63.1927 381.722 59.8272 386.203 56.5123C400.699 45.7913 417.799 33.0854 434.783 26.668Z" fill="url(#paint1_linear_310_7)"/>
<defs>
<linearGradient id="paint0_linear_310_7" x1="376.964" y1="-57.8175" x2="319.915" y2="482.193" gradientUnits="userSpaceOnUse">
<stop stop-color="#4F39F6"/>
<stop offset="1" stop-color="#EC003F"/>
</linearGradient>
<linearGradient id="paint1_linear_310_7" x1="401.732" y1="26.668" x2="401.732" y2="148.547" gradientUnits="userSpaceOnUse">
<stop stop-color="#4F39F6"/>
<stop offset="1" stop-color="#EC003F"/>
</linearGradient>
</defs>
</svg>
